<svg width="561" height="468" viewBox="0 0 561 468" fill="none" xmlns="http://www.w3.org/2000/svg">
<path d="M504.328 47.3297C509.299 47.3309 513.33 43.3011 513.33 38.3297V9.66796C513.33 4.69739 509.301 0.667969 504.33 0.667969H55.67C50.6995 0.667969 46.67 4.69741 46.67 9.66797V38.336C46.67 43.3065 50.6995 47.336 55.67 47.336H61.0021C65.9726 47.336 70.002 51.3654 70.002 56.336V411.666C70.002 416.637 65.9726 420.666 61.002 420.666H55.67C50.6995 420.666 46.67 424.695 46.67 429.666V458.334C46.67 463.305 50.6995 467.334 55.67 467.334H504.34C509.311 467.334 513.34 463.305 513.34 458.334V429.666C513.34 424.695 509.311 420.666 504.34 420.666H499.008C494.037 420.666 490.008 416.637 490.008 411.666L490.004 56.3284C490.004 51.3569 494.035 47.327 499.007 47.3283L504.328 47.3297ZM210 79.668C210 74.6974 214.029 70.668 219 70.668H247.668C252.639 70.668 256.668 74.6974 256.668 79.668V108.335C256.668 113.306 252.638 117.336 247.667 117.335L218.999 117.333C214.029 117.332 210 113.303 210 108.333V79.668ZM163.333 388.329C163.332 393.299 159.303 397.328 154.333 397.328H125.668C120.697 397.328 116.668 393.299 116.668 388.328V359.66C116.668 354.689 120.697 350.66 125.668 350.66H154.335C159.306 350.66 163.336 354.69 163.335 359.661L163.333 388.329ZM163.333 294.997C163.332 299.967 159.303 303.996 154.333 303.996H125.668C120.697 303.996 116.668 299.967 116.668 294.996V266.328C116.668 261.357 120.697 257.328 125.668 257.328H154.335C159.306 257.328 163.336 261.358 163.335 266.329L163.333 294.997ZM163.333 201.665C163.332 206.635 159.303 210.664 154.333 210.664H125.668C120.697 210.664 116.668 206.635 116.668 201.664V172.996C116.668 168.025 120.697 163.996 125.668 163.996H154.335C159.306 163.996 163.336 168.026 163.335 172.997L163.333 201.665ZM163.333 108.329C163.332 113.299 159.303 117.328 154.333 117.328H125.668C120.697 117.328 116.668 113.299 116.668 108.328V79.664C116.668 74.6934 120.697 70.664 125.668 70.664H154.335C159.306 70.664 163.336 74.6939 163.335 79.6647L163.333 108.329ZM210 172.996C210 168.025 214.029 163.996 219 163.996H247.668C252.639 163.996 256.668 168.025 256.668 172.996V201.664C256.668 206.635 252.639 210.664 247.668 210.664H219C214.029 210.664 210 206.635 210 201.664V172.996ZM350 411.666C350 416.637 345.971 420.666 341 420.666H219C214.029 420.666 210 416.637 210 411.666V266.336C210 261.365 214.029 257.336 219 257.336H341C345.971 257.336 350 261.365 350 266.336V411.666ZM350 201.666C350 206.637 345.971 210.666 341 210.666H312.332C307.361 210.666 303.332 206.637 303.332 201.666V172.998C303.332 168.027 307.361 163.998 312.332 163.998H341C345.971 163.998 350 168.027 350 172.998V201.666ZM350 108.33C350 113.301 345.971 117.33 341 117.33H312.332C307.361 117.33 303.332 113.301 303.332 108.33V79.666C303.332 74.6954 307.361 70.666 312.332 70.666H341C345.971 70.666 350 74.6954 350 79.666V108.33ZM443.332 388.33C443.332 393.301 439.303 397.33 434.332 397.33H405.664C400.694 397.33 396.664 393.301 396.664 388.33V359.662C396.664 354.691 400.694 350.662 405.664 350.662H434.332C439.303 350.662 443.332 354.691 443.332 359.662V388.33ZM443.332 294.998C443.332 299.969 439.303 303.998 434.332 303.998H405.664C400.694 303.998 396.664 299.969 396.664 294.998V266.33C396.664 261.359 400.694 257.33 405.664 257.33H434.332C439.303 257.33 443.332 261.359 443.332 266.33V294.998ZM443.333 201.667C443.332 206.637 439.303 210.666 434.333 210.666H405.665C400.694 210.666 396.664 206.636 396.665 201.665L396.667 172.997C396.668 168.027 400.697 163.998 405.667 163.998H434.335C439.306 163.998 443.336 168.028 443.335 172.999L443.333 201.667ZM443.333 108.331C443.332 113.301 439.303 117.33 434.333 117.33H405.665C400.694 117.33 396.664 113.3 396.665 108.329L396.667 79.6652C396.668 74.6949 400.697 70.666 405.667 70.666H434.335C439.306 70.666 443.336 74.6959 443.335 79.6667L443.333 108.331Z" fill="#152A37"/>
<path d="M29.168 397H530.838C546.947 397 560.006 413.109 560.006 426.168V437.836C560.006 453.945 546.947 467.004 530.838 467.004H29.168C13.059 467.004 0 450.895 0 437.836V426.168C0 410.059 13.059 397 29.168 397V397Z" fill="url(#paint0_linear_680_132)"/>
<defs>
<linearGradient id="paint0_linear_680_132" x1="2.75061e-07" y1="432" x2="384.5" y2="432" gradientUnits="userSpaceOnUse">
<stop stop-color="#D5A44E"/>
<stop offset="1" stop-color="#152A37"/>
</linearGradient>
</defs>
</svg>
