<svg width="248" height="430" viewBox="0 0 248 430" fill="none" xmlns="http://www.w3.org/2000/svg">
<path d="M106.14 163.98C106.64 164.57 107.24 165.24 107.92 165.98C108.59 165.57 109.21 165.18 109.76 164.8C111.8 163.4 113.24 162.07 114.09 160.79C114.94 159.51 115.36 158.21 115.36 156.89C115.36 155.26 114.88 153.94 113.93 152.93C112.98 151.92 111.55 151.42 109.65 151.42C107.68 151.42 106.13 152 105.01 153.17C103.89 154.33 103.33 155.77 103.33 157.47C103.33 158.48 103.52 159.49 103.89 160.49C104.27 161.49 105.02 162.66 106.14 163.98Z" fill="url(#paint0_linear_651_121)"/>
<path d="M101.7 203.13C103.33 203.87 105.27 204.24 107.51 204.24C111.45 204.24 115.09 203.13 118.42 200.92C118.43 200.91 118.45 200.9 118.46 200.89L103.05 185.21C102.63 185.5 102.22 185.79 101.85 186.08C99.9799 187.55 98.6399 189.05 97.8199 190.56C96.9999 192.07 96.5999 193.8 96.5999 195.74C96.5999 197.29 97.0398 198.73 97.9298 200.04C98.8098 201.36 100.07 202.39 101.7 203.13Z" fill="url(#paint1_linear_651_121)"/>
<path d="M108.26 360.15V226.49C114.26 226.22 119.88 224.8 125.03 222.27V359.74C125.03 371.82 134.82 381.61 146.9 381.61H173.78H247.85V349.31C247.85 340.08 240.37 332.6 231.14 332.6H173.78V0.659904H144.12C133.58 0.659904 125.04 9.1999 125.04 19.7399V135.02C124.56 134.75 124.06 134.5 123.56 134.26C119.54 132.37 114.87 131.41 109.67 131.41C109.2 131.41 108.74 131.43 108.27 131.44V21.2599C108.27 9.8799 99.04 0.649902 87.66 0.649902H0.780029V381.6H86.83C98.66 381.6 108.26 372 108.26 360.15ZM62.04 336.21C62.04 340.35 58.66 343.73 54.52 343.73C50.38 343.73 47 340.35 47 336.21V212.57C47 208.43 50.38 205.05 54.52 205.05C58.66 205.05 62.04 208.43 62.04 212.57V336.21ZM62.04 167.46C62.04 171.6 58.66 174.98 54.52 174.98C50.38 174.98 47 171.6 47 167.46V43.8199C47 39.6799 50.38 36.2999 54.52 36.2999C58.66 36.2999 62.04 39.6799 62.04 43.8199V167.46ZM81.36 209.93C78.88 206.44 77.64 202.52 77.64 198.18C77.64 193.92 78.47 190.11 80.14 186.78C81.8 183.45 84.39 180.38 87.89 177.59C89.29 176.47 90.85 175.38 92.56 174.3C91.61 173.17 90.77 172.05 90.03 170.96C88.57 168.79 87.48 166.62 86.77 164.44C86.06 162.27 85.7 160.06 85.7 157.81C85.7 153.62 86.68 149.96 88.66 146.82C90.63 143.68 93.42 141.24 97.02 139.49C100.62 137.74 104.84 136.87 109.66 136.87C114.08 136.87 117.93 137.65 121.23 139.2C124.53 140.75 127.09 143 128.93 145.95C130.77 148.9 131.68 152.39 131.68 156.42C131.68 159.99 130.88 163.25 129.28 166.19C127.68 169.14 125.24 171.85 121.94 174.33C120.87 175.14 119.68 175.94 118.42 176.74L128.89 187.36C130.22 184.16 131.2 180.56 131.84 176.56V167.91H154.49V181.46H147.5C146.19 188.23 144.01 194.28 140.96 199.59L146.79 205.51H154.49V220.84H138.11L138.1 220.85L129.99 212.6C128.44 213.86 126.81 215.01 125.1 216.03C119.42 219.4 113.09 221.09 106.09 221.09C100.65 221.09 95.79 220.1 91.51 218.12C87.23 216.14 83.84 213.42 81.36 209.93Z" fill="url(#paint2_linear_651_121)"/>
<path d="M106.13 413.75C105.64 413.43 104.92 413.26 103.97 413.26H99.6899V417.18H103.97C104.92 417.18 105.64 417.03 106.13 416.72C106.62 416.41 106.87 415.92 106.87 415.24C106.87 414.57 106.62 414.08 106.13 413.75Z" fill="url(#paint3_linear_651_121)"/>
<path d="M201.99 413.77H207.03L204.51 407.69L201.99 413.77Z" fill="url(#paint4_linear_651_121)"/>
<path d="M105.39 410.13C105.87 409.82 106.1 409.35 106.1 408.71C106.1 408.09 105.86 407.63 105.39 407.32C104.91 407.01 104.23 406.86 103.34 406.86H99.6899V410.6H103.34C104.23 410.59 104.91 410.44 105.39 410.13Z" fill="url(#paint5_linear_651_121)"/>
<path d="M232.08 394.2H0.679932V414.53C0.679932 422.99 7.53994 429.85 15.9999 429.85H247.96V410.08C247.95 401.3 240.84 394.2 232.08 394.2ZM20.7899 419.95H17.1199V404.08H20.7899V419.95ZM41.2499 419.95L41.2299 410.43L36.5599 418.28H34.9099L30.2599 410.64V419.96H26.8099V404.09H29.8499L35.7899 413.94L41.6299 404.09H44.6399L44.6899 419.96H41.2499V419.95ZM65.1699 419.95L65.1499 410.43L60.4799 418.28H58.8299L54.1799 410.64V419.96H50.7299V404.09H53.7699L59.7099 413.94L65.5499 404.09H68.5599L68.6099 419.96H65.1699V419.95ZM90.3499 415.3C89.9099 416.3 89.2999 417.17 88.5299 417.91C87.7499 418.64 86.8399 419.21 85.7899 419.62C84.7399 420.03 83.5899 420.23 82.3599 420.23C81.1099 420.23 79.9499 420.03 78.8799 419.62C77.8099 419.21 76.8899 418.64 76.1199 417.9C75.3399 417.16 74.7399 416.29 74.3099 415.29C73.8799 414.29 73.6599 413.21 73.6599 412.03C73.6599 410.85 73.8799 409.76 74.3099 408.77C74.7399 407.78 75.3499 406.9 76.1299 406.16C76.9199 405.42 77.8399 404.85 78.8899 404.44C79.9499 404.03 81.0999 403.83 82.3399 403.83C83.5899 403.83 84.7499 404.03 85.7999 404.44C86.8499 404.85 87.7599 405.42 88.5399 406.16C89.3199 406.9 89.9299 407.77 90.3599 408.76C90.7999 409.75 91.0199 410.84 91.0199 412.04C90.9999 413.2 90.7899 414.29 90.3499 415.3ZM108.98 418.81C107.91 419.57 106.33 419.95 104.24 419.95H96.0399V404.08H103.79C105.78 404.08 107.28 404.46 108.29 405.21C109.29 405.97 109.8 406.96 109.8 408.2C109.8 409.03 109.6 409.75 109.19 410.36C108.81 410.93 108.29 411.36 107.65 411.69C107.81 411.74 107.99 411.77 108.14 411.84C108.91 412.16 109.51 412.64 109.94 413.28C110.37 413.91 110.59 414.69 110.59 415.61C110.59 416.98 110.05 418.05 108.98 418.81ZM119.31 419.95H115.64V404.08H119.31V419.95ZM136.97 419.95H125.34V404.08H129.01V416.95H136.97V419.95ZM144.97 419.95H141.3V404.08H144.97V419.95ZM163.28 419.95H151V404.08H162.99V407.03H154.65V410.48H162.02V413.34H154.65V417.01H163.29V419.95H163.28ZM183.03 419.95H180.02L172.11 410.32V419.95H168.48V404.08H171.52L179.41 413.71V404.08H183.04V419.95H183.03ZM209.59 419.95L208.18 416.55H200.83L199.42 419.95H195.66L202.73 404.08H206.36L213.45 419.95H209.59ZM220.23 414.06C220.48 414.68 220.83 415.22 221.3 415.68C221.76 416.14 222.3 416.49 222.93 416.73C223.56 416.97 224.25 417.09 225 417.09C225.73 417.09 226.43 416.97 227.12 416.74C227.37 416.66 227.61 416.52 227.86 416.4V411.77H231.21V418.21C230.35 418.86 229.35 419.36 228.21 419.71C227.07 420.06 225.93 420.23 224.8 420.23C223.55 420.23 222.39 420.03 221.34 419.63C220.29 419.23 219.38 418.66 218.6 417.92C217.82 417.18 217.22 416.31 216.79 415.31C216.36 414.31 216.14 413.22 216.14 412.02C216.14 410.83 216.36 409.73 216.79 408.73C217.22 407.73 217.83 406.86 218.61 406.12C219.4 405.38 220.32 404.81 221.37 404.41C222.43 404.01 223.59 403.81 224.86 403.81C226.27 403.81 227.53 404.04 228.66 404.51C229.79 404.98 230.73 405.66 231.5 406.55L229.14 408.73C228.57 408.13 227.94 407.68 227.26 407.38C226.58 407.09 225.84 406.94 225.04 406.94C224.27 406.94 223.57 407.06 222.93 407.3C222.3 407.54 221.75 407.89 221.29 408.34C220.83 408.79 220.47 409.33 220.22 409.95C219.97 410.57 219.85 411.26 219.85 412.01C219.86 412.76 219.98 413.44 220.23 414.06Z" fill="url(#paint6_linear_651_121)"/>
<path d="M85.8699 408.35C85.4199 407.9 84.8999 407.55 84.2899 407.31C83.6899 407.07 83.0299 406.95 82.3199 406.95C81.6099 406.95 80.9599 407.07 80.3599 407.31C79.7599 407.55 79.2399 407.9 78.7799 408.35C78.3299 408.8 77.9799 409.34 77.7299 409.96C77.4799 410.58 77.3599 411.27 77.3599 412.02C77.3599 412.76 77.4799 413.44 77.7299 414.07C77.9799 414.7 78.3299 415.24 78.7699 415.69C79.2199 416.14 79.7399 416.49 80.3499 416.73C80.9499 416.97 81.6099 417.09 82.3199 417.09C83.0299 417.09 83.6799 416.97 84.2799 416.73C84.8799 416.49 85.3999 416.14 85.8599 415.69C86.3099 415.24 86.6599 414.7 86.9099 414.08C87.1599 413.46 87.2799 412.77 87.2799 412.02C87.2799 411.27 87.1599 410.58 86.9099 409.96C86.6599 409.34 86.3199 408.8 85.8699 408.35Z" fill="url(#paint7_linear_651_121)"/>
<defs>
<linearGradient id="paint0_linear_651_121" x1="109.351" y1="434.063" x2="109.351" y2="61.6793" gradientUnits="userSpaceOnUse">
<stop stop-color="#F7CE6E"/>
<stop offset="0.6159" stop-color="#DFB157"/>
<stop offset="1" stop-color="#D5A44E"/>
</linearGradient>
<linearGradient id="paint1_linear_651_121" x1="107.537" y1="434.063" x2="107.537" y2="61.6794" gradientUnits="userSpaceOnUse">
<stop stop-color="#F7CE6E"/>
<stop offset="0.6159" stop-color="#DFB157"/>
<stop offset="1" stop-color="#D5A44E"/>
</linearGradient>
<linearGradient id="paint2_linear_651_121" x1="124.312" y1="434.063" x2="124.312" y2="61.6793" gradientUnits="userSpaceOnUse">
<stop stop-color="#F7CE6E"/>
<stop offset="0.6159" stop-color="#DFB157"/>
<stop offset="1" stop-color="#D5A44E"/>
</linearGradient>
<linearGradient id="paint3_linear_651_121" x1="103.278" y1="434.063" x2="103.278" y2="61.6809" gradientUnits="userSpaceOnUse">
<stop stop-color="#F7CE6E"/>
<stop offset="0.6159" stop-color="#DFB157"/>
<stop offset="1" stop-color="#D5A44E"/>
</linearGradient>
<linearGradient id="paint4_linear_651_121" x1="204.506" y1="434.063" x2="204.506" y2="61.6801" gradientUnits="userSpaceOnUse">
<stop stop-color="#F7CE6E"/>
<stop offset="0.6159" stop-color="#DFB157"/>
<stop offset="1" stop-color="#D5A44E"/>
</linearGradient>
<linearGradient id="paint5_linear_651_121" x1="102.893" y1="434.064" x2="102.893" y2="61.6774" gradientUnits="userSpaceOnUse">
<stop stop-color="#F7CE6E"/>
<stop offset="0.6159" stop-color="#DFB157"/>
<stop offset="1" stop-color="#D5A44E"/>
</linearGradient>
<linearGradient id="paint6_linear_651_121" x1="124.312" y1="434.063" x2="124.312" y2="61.6794" gradientUnits="userSpaceOnUse">
<stop stop-color="#F7CE6E"/>
<stop offset="0.6159" stop-color="#DFB157"/>
<stop offset="1" stop-color="#D5A44E"/>
</linearGradient>
<linearGradient id="paint7_linear_651_121" x1="82.3235" y1="434.063" x2="82.3235" y2="61.6799" gradientUnits="userSpaceOnUse">
<stop stop-color="#F7CE6E"/>
<stop offset="0.6159" stop-color="#DFB157"/>
<stop offset="1" stop-color="#D5A44E"/>
</linearGradient>
</defs>
</svg>
