<svg width="561" height="561" viewBox="0 0 561 561" fill="none" xmlns="http://www.w3.org/2000/svg">
<path d="M29.168 490H530.838C546.947 490 560.006 506.109 560.006 519.168V530.836C560.006 546.945 546.947 560.004 530.838 560.004H29.168C13.059 560.004 0 543.895 0 530.836V519.168C0 503.059 13.059 490 29.168 490V490Z" fill="url(#paint0_linear_677_119)"/>
<path d="M495.83 478.33C497.377 478.33 498.861 477.717 499.955 476.623C501.049 475.529 501.666 474.045 501.666 472.498V169.168C501.666 161.43 498.592 154.012 493.123 148.543C487.65 143.074 480.232 140 472.498 140H274.168C266.43 140 259.012 143.074 253.543 148.543C248.074 154.012 245 161.43 245 169.168V472.498C245 474.045 245.613 475.529 246.707 476.623C247.801 477.717 249.285 478.33 250.832 478.33H332.5V431.666C332.5 417.076 340.281 403.596 352.918 396.303C365.551 389.01 381.117 389.01 393.75 396.303C406.383 403.596 414.168 417.076 414.168 431.666V478.334L495.83 478.33ZM344.16 344.16L344.164 344.164C344.164 347.258 342.933 350.223 340.746 352.414C338.558 354.601 335.59 355.828 332.496 355.828H297.496C291.054 355.828 285.828 350.605 285.828 344.164V309.164C285.828 302.719 291.054 297.496 297.496 297.496H332.496C335.59 297.496 338.558 298.727 340.746 300.914C342.933 303.102 344.164 306.07 344.164 309.164L344.16 344.16ZM344.16 239.16L344.164 239.164C344.164 242.258 342.933 245.223 340.746 247.414C338.558 249.601 335.59 250.828 332.496 250.828H297.496C291.054 250.828 285.828 245.605 285.828 239.164V204.164C285.828 197.719 291.054 192.496 297.496 192.496H332.496C335.59 192.496 338.558 193.727 340.746 195.914C342.933 198.102 344.164 201.07 344.164 204.164L344.16 239.16ZM402.492 204.16L402.496 204.164C402.496 197.719 407.719 192.496 414.164 192.496H449.164C452.258 192.496 455.222 193.726 457.414 195.914C459.601 198.101 460.828 201.07 460.828 204.164V239.164C460.828 242.258 459.601 245.223 457.414 247.414C455.222 249.601 452.258 250.828 449.164 250.828H414.164C407.719 250.828 402.496 245.605 402.496 239.164L402.492 204.16ZM402.492 344.16V309.16L402.496 309.164C402.496 302.719 407.719 297.496 414.164 297.496H449.164C452.258 297.496 455.222 298.726 457.414 300.914C459.601 303.101 460.828 306.07 460.828 309.164V344.164C460.828 347.258 459.601 350.223 457.414 352.414C455.222 354.601 452.258 355.828 449.164 355.828H414.164C407.719 355.828 402.496 350.605 402.496 344.164L402.492 344.16Z" fill="#152A37"/>
<path d="M344.17 0H75.83C68.0956 0 60.678 3.0742 55.209 8.543C49.7363 14.0118 46.666 21.43 46.666 29.168V472.498C46.666 474.045 47.2793 475.529 48.373 476.623C49.4667 477.717 50.9511 478.33 52.498 478.33H227.498C229.045 478.33 230.529 477.717 231.623 476.623C232.717 475.529 233.33 474.045 233.33 472.498V169.168C233.33 158.336 237.635 147.949 245.291 140.293C252.947 132.637 263.334 128.332 274.166 128.332H367.498C369.045 128.332 370.529 127.719 371.623 126.625C372.717 125.531 373.33 124.047 373.33 122.5V29.168C373.33 21.4297 370.26 14.012 364.787 8.543C359.318 3.0742 351.9 0 344.166 0L344.17 0ZM169.17 449.17C169.17 452.264 167.94 455.229 165.752 457.42C163.565 459.608 160.596 460.834 157.502 460.834H122.502C116.061 460.834 110.834 455.611 110.834 449.17V414.17C110.834 407.725 116.061 402.502 122.502 402.502H157.502C160.596 402.502 163.565 403.733 165.752 405.92C167.94 408.108 169.17 411.076 169.17 414.17V449.17ZM169.17 332.5C169.17 335.594 167.94 338.562 165.752 340.75C163.565 342.938 160.596 344.168 157.502 344.168H122.502C116.061 344.168 110.834 338.941 110.834 332.5V297.5C110.834 291.059 116.061 285.832 122.502 285.832H157.502C160.596 285.832 163.565 287.062 165.752 289.25C167.94 291.438 169.17 294.406 169.17 297.5V332.5ZM169.17 215.83C169.17 218.924 167.94 221.893 165.752 224.08C163.565 226.268 160.596 227.498 157.502 227.498H122.502C116.061 227.498 110.834 222.275 110.834 215.83V180.83C110.834 174.389 116.061 169.166 122.502 169.166H157.502C160.596 169.166 163.565 170.393 165.752 172.58C167.94 174.771 169.17 177.736 169.17 180.83V215.83ZM169.17 99.16V99.1639C169.17 102.258 167.94 105.223 165.752 107.414C163.565 109.601 160.596 110.828 157.502 110.828H122.502C116.061 110.828 110.834 105.605 110.834 99.164V64.164C110.834 57.7187 116.061 52.496 122.502 52.496H157.502C160.596 52.496 163.565 53.7265 165.752 55.914C167.94 58.1015 169.17 61.0702 169.17 64.164V99.16ZM309.17 99.16V99.1639C309.17 102.258 307.94 105.223 305.752 107.414C303.565 109.601 300.596 110.828 297.502 110.828H262.502C256.061 110.828 250.834 105.605 250.834 99.164V64.164C250.834 57.7187 256.061 52.496 262.502 52.496H297.502C300.596 52.496 303.565 53.7265 305.752 55.914C307.94 58.1015 309.17 61.0702 309.17 64.164V99.16Z" fill="#152A37"/>
<defs>
<linearGradient id="paint0_linear_677_119" x1="2.75061e-07" y1="525" x2="384.5" y2="525" gradientUnits="userSpaceOnUse">
<stop stop-color="#D5A44E"/>
<stop offset="1" stop-color="#152A37"/>
</linearGradient>
</defs>
</svg>
