
<svg width="764" height="347" viewBox="0 0 764 347" fill="none" xmlns="http://www.w3.org/2000/svg">
<path d="M78.5402 121.74C78.9102 122.17 79.3502 122.67 79.8602 123.22C80.3602 122.92 80.8102 122.63 81.2202 122.35C82.7302 121.32 83.8002 120.33 84.4202 119.38C85.0502 118.43 85.3602 117.47 85.3602 116.5C85.3602 115.3 85.0102 114.32 84.3002 113.57C83.6002 112.83 82.5402 112.45 81.1302 112.45C79.6702 112.45 78.5302 112.88 77.7002 113.74C76.8702 114.6 76.4602 115.66 76.4602 116.92C76.4602 117.67 76.6002 118.41 76.8702 119.16C77.1602 119.91 77.7102 120.77 78.5402 121.74Z" fill="url(#paint0_linear_665_121)"/>
<path d="M75.3802 138.09C74.0002 139.18 73.0002 140.28 72.4002 141.4C71.8002 142.52 71.4902 143.8 71.4902 145.23C71.4902 146.38 71.8202 147.44 72.4702 148.41C73.1202 149.39 74.0502 150.15 75.2602 150.69C76.4702 151.24 77.9002 151.51 79.5602 151.51C82.4702 151.51 85.1602 150.69 87.6302 149.06C87.6402 149.05 87.6502 149.05 87.6602 149.04L76.2702 137.44C75.9602 137.66 75.6502 137.87 75.3802 138.09Z" fill="url(#paint1_linear_665_121)"/>
<path d="M170.99 246.44H128.57V0.959961H106.63C98.8401 0.959961 92.5201 7.27996 92.5201 15.07V100.33C92.1601 100.13 91.8001 99.94 91.4201 99.77C88.4501 98.37 84.9901 97.67 81.1501 97.67C80.8001 97.67 80.4601 97.68 80.1201 97.69V16.2C80.1201 7.77996 73.3001 0.959961 64.8801 0.959961H0.630127V282.68H64.2701C73.0301 282.68 80.1301 275.58 80.1301 266.82V167.96C84.5701 167.76 88.7201 166.71 92.5301 164.84V266.5C92.5301 275.43 99.7701 282.67 108.7 282.67H128.58H183.36V258.78C183.35 251.97 177.81 246.44 170.99 246.44ZM45.9301 249.12C45.9301 252.18 43.4301 254.68 40.3701 254.68C37.3101 254.68 34.8101 252.18 34.8101 249.12V157.68C34.8101 154.62 37.3101 152.12 40.3701 152.12C43.4301 152.12 45.9301 154.62 45.9301 157.68V249.12ZM45.9301 124.32C45.9301 127.38 43.4301 129.88 40.3701 129.88C37.3101 129.88 34.8101 127.38 34.8101 124.32V32.88C34.8101 29.82 37.3101 27.32 40.3701 27.32C43.4301 27.32 45.9301 29.82 45.9301 32.88V124.32ZM114.31 134.68H109.14C108.17 139.69 106.56 144.16 104.3 148.09L108.62 152.47H114.32V163.81H102.21L102.2 163.82L96.2001 157.72C95.0501 158.65 93.8501 159.5 92.5801 160.25C88.3801 162.75 83.6901 163.99 78.5201 163.99C74.5001 163.99 70.9001 163.26 67.7401 161.8C64.5701 160.34 62.0701 158.32 60.2401 155.73C58.4001 153.15 57.4901 150.25 57.4901 147.04C57.4901 143.89 58.1001 141.08 59.3401 138.61C60.5701 136.14 62.4801 133.88 65.0701 131.81C66.1101 130.98 67.2601 130.17 68.5201 129.37C67.8201 128.53 67.1901 127.71 66.6501 126.9C65.5701 125.29 64.7701 123.69 64.2401 122.08C63.7101 120.47 63.4501 118.84 63.4501 117.18C63.4501 114.08 64.1801 111.37 65.6401 109.05C67.1001 106.73 69.1601 104.92 71.8201 103.63C74.4801 102.34 77.6001 101.69 81.1701 101.69C84.4401 101.69 87.2901 102.26 89.7301 103.41C92.1701 104.56 94.0701 106.22 95.4201 108.4C96.7801 110.58 97.4601 113.16 97.4601 116.14C97.4601 118.78 96.8701 121.19 95.6901 123.37C94.5101 125.55 92.7001 127.56 90.2601 129.39C89.4701 129.99 88.5901 130.58 87.6601 131.18L95.4001 139.03C96.3801 136.67 97.1101 134 97.5801 131.04V124.64H114.33V134.68H114.31Z" fill="url(#paint2_linear_665_121)"/>
<path d="M78.54 306.47C78.18 306.23 77.64 306.11 76.94 306.11H73.77V309.01H76.94C77.64 309.01 78.18 308.9 78.54 308.67C78.9 308.44 79.09 308.07 79.09 307.57C79.09 307.07 78.9 306.71 78.54 306.47Z" fill="url(#paint3_linear_665_121)"/>
<path d="M149.43 306.47H153.16L151.29 301.98L149.43 306.47Z" fill="url(#paint4_linear_665_121)"/>
<path d="M76.47 304.13C77.13 304.13 77.63 304.02 77.99 303.79C78.34 303.56 78.52 303.21 78.52 302.74C78.52 302.28 78.34 301.94 77.99 301.71C77.64 301.48 77.13 301.37 76.47 301.37H73.77V304.14H76.47V304.13Z" fill="url(#paint5_linear_665_121)"/>
<path d="M171.68 292H0.550049V307.03C0.550049 313.29 5.62005 318.36 11.8801 318.36H183.43V303.74C183.42 297.26 178.16 292 171.68 292ZM15.42 311.05H12.7V299.32H15.42V311.05ZM30.56 311.05L30.54 304.01L27.09 309.81H25.87L22.43 304.16V311.05H19.8801V299.32H22.1301L26.53 306.61L30.8501 299.32H33.08L33.11 311.05H30.56ZM48.2401 311.05L48.22 304.01L44.7701 309.81H43.55L40.11 304.16V311.05H37.56V299.32H39.81L44.2101 306.61L48.53 299.32H50.76L50.79 311.05H48.2401ZM66.86 307.61C66.54 308.35 66.09 309 65.51 309.54C64.93 310.08 64.26 310.5 63.48 310.81C62.7 311.11 61.86 311.26 60.94 311.26C60.01 311.26 59.15 311.11 58.37 310.81C57.58 310.51 56.9 310.08 56.33 309.54C55.75 308.99 55.3101 308.35 54.9901 307.61C54.6701 306.87 54.51 306.07 54.51 305.2C54.51 304.33 54.6701 303.52 54.9901 302.79C55.3101 302.05 55.76 301.41 56.34 300.86C56.92 300.31 57.6001 299.89 58.3801 299.59C59.1601 299.29 60.01 299.14 60.93 299.14C61.86 299.14 62.7101 299.29 63.4901 299.59C64.2701 299.89 64.9401 300.32 65.5201 300.86C66.1001 301.41 66.55 302.05 66.87 302.78C67.19 303.51 67.36 304.32 67.36 305.2C67.35 306.06 67.19 306.86 66.86 307.61ZM80.64 310.2C79.85 310.76 78.68 311.05 77.14 311.05H71.0701V299.32H76.8C78.28 299.32 79.3801 299.6 80.1301 300.16C80.8701 300.72 81.2401 301.46 81.2401 302.37C81.2401 302.98 81.09 303.52 80.79 303.97C80.51 304.39 80.12 304.71 79.65 304.95C79.77 304.99 79.9001 305.01 80.0201 305.06C80.5901 305.3 81.0301 305.65 81.3501 306.12C81.6701 306.59 81.83 307.17 81.83 307.85C81.83 308.85 81.44 309.64 80.64 310.2ZM88.29 311.05H85.5701V299.32H88.29V311.05ZM101.34 311.05H92.7401V299.32H95.4601V308.84H101.34V311.05ZM107.26 311.05H104.54V299.32H107.26V311.05ZM120.81 311.05H111.73V299.32H120.6V301.5H114.43V304.05H119.88V306.16H114.43V308.88H120.82V311.05H120.81ZM135.41 311.05H133.18L127.33 303.93V311.05H124.65V299.32H126.9L132.73 306.44V299.32H135.41V311.05V311.05ZM155.05 311.05L154.01 308.54H148.57L147.52 311.05H144.74L149.97 299.32H152.65L157.9 311.05H155.05ZM161.31 306.69C161.49 307.15 161.76 307.55 162.1 307.89C162.44 308.23 162.84 308.49 163.31 308.67C163.77 308.85 164.28 308.94 164.84 308.94C165.38 308.94 165.9 308.85 166.41 308.68C166.59 308.62 166.77 308.52 166.95 308.43V305H169.43V309.76C168.79 310.24 168.05 310.61 167.21 310.87C166.37 311.13 165.53 311.26 164.69 311.26C163.76 311.26 162.91 311.11 162.13 310.82C161.35 310.52 160.68 310.1 160.1 309.55C159.52 309 159.08 308.36 158.76 307.62C158.44 306.88 158.28 306.07 158.28 305.19C158.28 304.31 158.44 303.5 158.76 302.76C159.08 302.02 159.53 301.38 160.11 300.83C160.69 300.28 161.37 299.86 162.15 299.56C162.93 299.26 163.79 299.12 164.73 299.12C165.77 299.12 166.71 299.29 167.54 299.64C168.37 299.99 169.07 300.49 169.64 301.15L167.9 302.76C167.48 302.31 167.01 301.98 166.51 301.76C166.01 301.54 165.46 301.43 164.87 301.43C164.3 301.43 163.78 301.52 163.31 301.7C162.84 301.88 162.44 302.14 162.09 302.47C161.75 302.81 161.49 303.2 161.3 303.66C161.12 304.12 161.02 304.63 161.02 305.19C161.03 305.73 161.12 306.23 161.31 306.69Z" fill="url(#paint6_linear_665_121)"/>
<path d="M63.55 302.47C63.22 302.13 62.83 301.88 62.39 301.7C61.94 301.52 61.46 301.43 60.93 301.43C60.4 301.43 59.92 301.52 59.48 301.7C59.04 301.88 58.65 302.14 58.32 302.47C57.98 302.81 57.72 303.2 57.54 303.66C57.36 304.12 57.26 304.63 57.26 305.19C57.26 305.74 57.35 306.24 57.54 306.71C57.72 307.17 57.98 307.57 58.31 307.91C58.64 308.25 59.03 308.5 59.47 308.68C59.92 308.86 60.4 308.95 60.93 308.95C61.46 308.95 61.94 308.86 62.38 308.68C62.82 308.5 63.21 308.24 63.54 307.91C63.88 307.57 64.14 307.18 64.32 306.72C64.5 306.26 64.6 305.75 64.6 305.19C64.6 304.63 64.51 304.12 64.32 303.66C64.13 303.2 63.88 302.8 63.55 302.47Z" fill="url(#paint7_linear_665_121)"/>
<path d="M244.788 34.2707C255.253 36.1068 263.736 40.8439 263.736 52.1178C263.736 59.6826 259.734 65.5215 252.94 69.2305C247.101 72.4254 239.94 73.7107 231.2 73.7107H207V70.2221C216.989 69.5244 217.503 68.9735 217.503 59.7561V14.8076C217.503 5.70041 217.025 5.18635 207.808 4.41517V1H236.231C244.677 1 249.268 2.28521 252.83 4.7089C256.796 7.49982 258.962 12.4942 258.962 17.6353C258.962 28.1013 250.149 32.4712 244.788 34.1237V34.2707V34.2707ZM231.971 32.9119C244.127 32.9119 249.635 28.138 249.635 18.8105C249.635 11.6496 245.449 4.74566 234.028 4.74566C231.2 4.74566 228.409 5.25977 227.454 5.88405C226.316 6.65523 225.912 7.72022 225.912 11.4292V32.9119H231.971V32.9119ZM225.949 59.6826C225.949 67.7249 227.895 69.6712 235.46 69.6712C245.265 69.561 253.601 65.191 253.601 53.3663C253.601 41.7253 245.265 37.135 231.861 37.135H225.949V59.6826Z" fill="url(#paint8_linear_665_121)"/>
<path d="M314.891 64.7507C307.693 73.1969 300.202 75.0331 296.713 75.0331C283.31 75.0331 275.231 63.8695 275.231 51.1634C275.231 43.4884 277.875 36.4744 282.502 31.3699C286.982 26.3389 293.004 23.291 298.55 23.291H298.66C307.987 23.291 315.442 31.5168 315.442 40.4772C315.442 43.011 315.038 43.7821 313.092 44.333C311.329 44.5533 296.97 45.6918 283.273 46.0957C283.346 61.3356 292.38 67.7253 300.055 67.7253C304.719 67.7253 308.795 65.7055 312.982 61.9965L314.891 64.7507ZM296.052 27.6609C290.801 27.6609 285.733 32.3982 283.64 41.2483C290.214 41.3585 296.677 41.2483 303.617 41.0647C305.821 40.9546 306.445 40.2935 306.445 38.641C306.445 32.7287 302.369 27.6609 296.163 27.6609H296.052V27.6609Z" fill="url(#paint9_linear_665_121)"/>
<path d="M338.687 35.1152C342.065 29.5701 346.766 23.2906 352.495 23.2906C356.461 23.2906 358.921 26.1182 358.921 28.799C358.921 30.7452 357.856 32.8017 355.689 33.9401C354.331 34.344 353.486 34.3073 352.752 33.7198C351.209 31.9938 349.851 31.4062 348.161 31.4062C344.967 31.4062 340.89 35.2621 338.467 41.9823V61.8125C338.467 69.2672 338.944 70.0384 347.794 70.5525V73.7474H322.456V70.5525C329.837 70.0384 330.608 69.2672 330.608 61.8859V39.0812C330.608 31.5164 330.131 31.2226 323.447 30.4514V27.5503C328.588 26.6689 333.436 25.2368 338.467 22.96V35.1152H338.687V35.1152Z" fill="url(#paint10_linear_665_121)"/>
<path d="M399.61 75.0331C398.141 75.0331 395.754 74.0783 394.763 73.0868C393.11 71.4343 392.449 69.7817 391.972 67.9456C387.308 71.0303 382.093 75.0331 378.201 75.0331C370.599 75.0331 365.017 68.6066 365.017 61.2254C365.017 55.974 367.955 52.008 374.345 50.0617C381.139 47.7482 389.364 44.5534 391.751 42.7907V41.2115C391.751 32.9489 387.565 28.322 381.873 28.322C379.449 28.322 377.576 29.3135 376.512 30.6355C375.079 32.288 374.198 34.4913 373.096 37.9065C372.803 39.559 371.554 40.3302 369.901 40.3302C368.175 40.3302 365.311 38.2003 365.311 35.593C365.311 33.9405 366.964 32.6552 369.02 31.1128C371.811 28.9829 378.935 24.6129 385.509 23.3276C388.703 23.3276 392.192 24.3191 394.469 26.4123C398.178 29.6072 399.426 34.0874 399.426 39.7794V60.9683C399.426 65.9993 401.263 67.762 403.392 67.762C404.678 67.762 406.33 66.9908 407.395 66.4767L408.644 69.5981L399.61 75.0331ZM391.788 46.7199C389.254 47.9685 383.232 50.5758 380.698 51.6775C376.108 53.6238 373.61 55.8272 373.61 60.0136C373.61 65.6321 378.201 68.4597 381.946 68.4597C385.031 68.4597 389.621 65.9259 391.825 63.9796V46.7199H391.788Z" fill="url(#paint11_linear_665_121)"/>
<path d="M433.652 73.4904C431.595 74.6288 429.685 75.0328 428.51 75.0328C421.717 75.0328 417.934 70.5527 417.934 61.8494V29.203H409.965L409.488 27.9177L412.573 24.6127H417.934V16.6806L424.067 9.3728L425.719 9.59313V24.6127H438.756C439.894 25.7511 439.527 28.2115 438.095 29.203H425.683V57.9567C425.683 66.917 429.392 68.7165 432.293 68.7165C435.231 68.7165 438.095 67.4679 439.49 66.6967L440.629 69.6346L433.652 73.4904Z" fill="url(#paint12_linear_665_121)"/>
<path d="M498.651 71.0666C496.337 71.4338 493.289 71.9479 490.315 72.8293C487.487 73.6005 484.66 74.3717 482.86 75.0327L482.089 74.3716V66.4028C479.298 68.6062 476.727 70.5524 473.276 72.4253C470.044 74.2614 467.914 75.0327 464.939 75.0327C457.852 75.0327 450.985 70.7728 450.985 58.0301V36.7677C450.985 30.4881 450.03 29.974 447.386 29.4599L443.897 28.7989V25.8611C446.321 25.7509 448.782 25.3837 451.756 25.1633C454.767 24.6492 457.852 24.2086 459.248 23.7312C458.88 27.4402 458.88 32.9485 458.88 40.3298V55.0922C458.88 65.5581 464.021 68.1288 469.273 68.1288C473.569 68.1288 477.829 66.2926 482.016 62.3266V36.7677C482.016 30.4881 480.877 29.974 477.058 29.4599L472.908 28.7989V25.8611C475.846 25.7509 479.922 25.3837 483.007 25.0899C486.092 24.6125 488.552 24.2086 489.984 23.7312V61.2249C489.984 66.9537 490.976 67.6146 495.346 67.835L498.541 67.9451V71.0666H498.651Z" fill="url(#paint13_linear_665_121)"/>
<path d="M535.888 73.7104V70.5155C542.792 69.7444 543.673 68.863 543.673 61.2981V42.8634C543.673 35.0048 541.066 29.68 533.023 29.68C528.176 29.68 523.512 32.6913 519.987 35.9596V61.7755C519.987 69.524 520.501 69.7444 527.662 70.5155V73.7104H503.866V70.5155C511.431 69.7444 512.128 69.0834 512.128 61.8491V39.0443C512.128 31.8466 511.357 31.3692 505.224 30.4144V27.5134C510.586 26.5586 515.617 25.1999 519.987 22.9231V31.8467C522.19 30.1941 524.577 28.6518 527.442 26.6688C530.526 24.8326 533.684 23.2903 537.136 23.2903C545.876 23.2903 551.495 29.4229 551.495 40.1826V61.8123C551.495 69.4873 552.156 69.7811 558.95 70.5523V73.7471H535.888V73.7104Z" fill="url(#paint14_linear_665_121)"/>
<path d="M613.629 25.3474C612.674 27.2203 610.25 30.1948 608.488 31.0762L602.208 30.5987C604.338 33.0224 605.513 36.7314 605.513 40.6975C605.513 52.7425 595.635 58.7283 585.903 58.7283C584.251 58.7283 582.121 58.5079 580.175 58.1407C578.522 59.3893 576.576 61.5559 576.576 63.0983C576.576 65.3016 578.412 67.2479 583.369 67.2479C587.85 67.2479 591.926 67.1744 595.782 67.1744C602.869 67.1744 611.793 69.5247 611.793 80.5415C611.793 91.7786 598.866 102.391 584.141 102.391C571.839 102.391 564.825 95.1204 564.714 88.5837C564.714 86.2702 565.596 83.8465 567.358 82.0838C569.415 79.8804 573.932 76.1714 576.466 74.1517C572.61 73.0867 569.672 70.4428 568.24 68.1292C567.358 66.5869 566.991 64.6406 567.101 63.6491C571.288 62.1067 574.776 59.0587 576.539 56.7452C572.059 54.7989 567.101 49.7312 567.101 41.9828C567.101 29.24 578.632 23.3276 587.078 23.3276H587.189C590.677 23.3276 594.496 24.3192 597.691 26.0452C603.053 25.7514 608.304 25.1638 612.821 24.3926L613.629 25.3474ZM588.768 74.372C583.406 74.372 580.836 75.1432 578.669 77.016C575.364 79.5132 573.161 82.8182 573.161 86.1233C573.161 92.2559 579.771 96.4056 587.996 96.4056C598.977 96.4056 604.668 90.9707 604.668 83.9567C604.668 80.2844 602.906 77.3466 599.821 76.0246C596.993 74.7393 593.688 74.372 588.878 74.372H588.768V74.372ZM585.793 26.7796C580.725 26.7796 576.062 31.7371 576.062 40.2935C576.062 48.9233 580.836 54.9458 587.115 54.9458C592.256 54.8724 596.993 50.282 596.993 41.7257C596.993 32.7654 592.256 26.7796 585.94 26.7796H585.793Z" fill="url(#paint15_linear_665_121)"/>
<path d="M235.46 123.323C243.135 123.323 249.635 124.608 254.226 128.06C258.302 131.255 261.24 136.286 261.24 143.594C261.24 158.136 250.37 165.334 239.61 166.619C237.847 166.839 235.644 166.839 234.359 166.729L225.912 164.416V181.822C225.912 191.407 226.977 191.811 237.443 192.508V195.997H207.257V192.508C216.475 191.811 217.466 190.966 217.466 181.822V137.388C217.466 127.509 216.328 127.216 207.882 126.702V123.286H235.46V123.323ZM225.949 160.486C227.492 161.074 230.686 162.029 234.579 162.029C242.511 162.029 251.288 158.026 251.288 144.292C251.288 132.43 243.613 127.032 233.808 127.032C230.576 127.032 227.895 127.693 227.234 128.464C226.243 129.346 225.949 130.668 225.949 133.826V160.486V160.486Z" fill="url(#paint16_linear_665_121)"/>
<path d="M267.703 196.033V192.838C274.974 192.324 276.075 191.553 276.075 184.172V132.026C276.075 124.241 275.304 123.874 267.923 123.47V120.532C273.835 119.761 280.445 117.741 283.824 116.456V184.209C283.824 191.59 284.815 192.361 292.27 192.875V196.07H267.703V196.033Z" fill="url(#paint17_linear_665_121)"/>
<path d="M333.546 197.318C332.077 197.318 329.69 196.364 328.699 195.372C327.046 193.72 326.385 192.067 325.908 190.231C321.244 193.316 316.029 197.318 312.137 197.318C304.535 197.318 298.953 190.892 298.953 183.511C298.953 178.259 301.891 174.293 308.281 172.347C315.075 170.034 323.3 166.839 325.687 165.076V163.497C325.687 155.234 321.501 150.607 315.809 150.607C313.385 150.607 311.513 151.599 310.448 152.921C309.015 154.573 308.134 156.777 307.032 160.192C306.739 161.844 305.49 162.616 303.837 162.616C302.112 162.616 299.247 160.486 299.247 157.878C299.247 156.226 300.9 154.941 302.956 153.398C305.747 151.268 312.871 146.898 319.445 145.613C322.639 145.613 326.128 146.605 328.405 148.698C332.114 151.893 333.362 156.373 333.362 162.065V183.254C333.362 188.285 335.199 190.047 337.328 190.047C338.614 190.047 340.266 189.276 341.331 188.762L342.58 191.883L333.546 197.318ZM325.761 169.042C323.227 170.291 317.204 172.898 314.671 174C310.08 175.946 307.583 178.149 307.583 182.336C307.583 187.954 312.174 190.782 315.919 190.782C319.004 190.782 323.594 188.248 325.798 186.302V169.042H325.761Z" fill="url(#paint18_linear_665_121)"/>
<path d="M378.163 196.034V192.839C385.067 192.068 385.949 191.186 385.949 183.621V165.187C385.949 157.328 383.341 152.003 375.299 152.003C370.452 152.003 365.788 155.015 362.263 158.283V184.099C362.263 191.847 362.777 192.068 369.938 192.839V196.034H346.141V192.839C353.706 192.068 354.404 191.407 354.404 184.172V161.367C354.404 154.17 353.633 153.693 347.5 152.738V149.837C352.862 148.882 357.893 147.523 362.263 145.246V154.17C364.466 152.517 366.853 150.975 369.717 148.992C372.802 147.156 375.96 145.614 379.412 145.614C388.152 145.614 393.771 151.746 393.771 162.506V184.136C393.771 191.811 394.432 192.104 401.225 192.876V196.07H378.163V196.034Z" fill="url(#paint19_linear_665_121)"/>
<path d="M459.651 193.39C457.338 193.757 454.29 194.271 451.315 195.152C448.487 195.923 445.66 196.695 443.86 197.356L443.089 196.695V188.726C440.298 190.929 437.728 192.875 434.276 194.748C431.044 196.584 428.914 197.356 425.94 197.356C418.852 197.356 411.985 193.096 411.985 180.353V159.091C411.985 152.811 411.03 152.297 408.386 151.783L404.898 151.122V148.184C407.321 148.074 409.782 147.707 412.756 147.486C415.768 146.972 418.852 146.532 420.248 146.054C419.88 149.763 419.881 155.272 419.881 162.653V177.415C419.881 187.881 425.022 190.452 430.273 190.452C434.57 190.452 438.829 188.616 443.016 184.65V159.091C443.016 152.811 441.877 152.297 438.058 151.783L433.909 151.122V148.184C436.846 148.074 440.923 147.707 444.007 147.413C447.092 146.936 449.552 146.532 450.985 146.054V183.548C450.985 189.277 451.976 189.938 456.346 190.158L459.541 190.268V193.39H459.651Z" fill="url(#paint20_linear_665_121)"/>
<path d="M496.925 196.034V192.839C503.829 192.068 504.71 191.186 504.71 183.621V165.187C504.71 157.328 502.103 152.003 494.06 152.003C489.213 152.003 484.549 155.015 481.024 158.283V184.099C481.024 191.847 481.538 192.068 488.699 192.839V196.034H464.903V192.839C472.467 192.068 473.165 191.407 473.165 184.172V161.367C473.165 154.17 472.394 153.693 466.261 152.738V149.837C471.623 148.882 476.654 147.523 481.024 145.246V154.17C483.227 152.517 485.614 150.975 488.478 148.992C491.563 147.156 494.721 145.614 498.173 145.614C506.913 145.614 512.532 151.746 512.532 162.506V184.136C512.532 191.811 513.193 192.104 519.986 192.876V196.07H496.925V196.034Z" fill="url(#paint21_linear_665_121)"/>
<path d="M574.63 147.67C573.675 149.543 571.252 152.517 569.489 153.398L563.209 152.921C565.339 155.345 566.514 159.054 566.514 163.02C566.514 175.065 556.636 181.051 546.905 181.051C545.252 181.051 543.122 180.83 541.176 180.463C539.523 181.712 537.577 183.878 537.577 185.421C537.577 187.624 539.413 189.57 544.371 189.57C548.851 189.57 552.927 189.497 556.783 189.497C563.87 189.497 572.794 191.847 572.794 202.864C572.794 214.101 559.868 224.714 545.142 224.714C532.84 224.714 525.826 217.443 525.716 210.906C525.716 208.592 526.597 206.169 528.36 204.406C530.416 202.203 534.933 198.494 537.467 196.474C533.611 195.409 530.673 192.765 529.241 190.451C528.36 188.909 527.992 186.963 528.103 185.971C532.289 184.429 535.778 181.381 537.54 179.067C533.06 177.121 528.103 172.054 528.103 164.305C528.103 151.562 539.633 145.65 548.08 145.65H548.19C551.678 145.65 555.498 146.641 558.692 148.367C564.054 148.074 569.305 147.486 573.822 146.715L574.63 147.67ZM549.769 196.694C544.407 196.694 541.837 197.465 539.67 199.338C536.365 201.835 534.162 205.141 534.162 208.446C534.162 214.578 540.772 218.728 548.998 218.728C559.978 218.728 565.67 213.293 565.67 206.279C565.67 202.607 563.907 199.669 560.822 198.347C557.995 197.062 554.69 196.694 549.879 196.694H549.769V196.694ZM546.831 149.065C541.763 149.065 537.1 154.023 537.1 162.579C537.1 171.209 541.874 177.231 548.153 177.231C553.294 177.158 558.031 172.568 558.031 164.011C558.031 155.051 553.294 149.065 546.978 149.065H546.831Z" fill="url(#paint22_linear_665_121)"/>
<path d="M272.844 319.237C271.265 319.237 269.906 319.237 268.474 319.017C261.57 318.723 256.833 316.41 251.288 309.029C247.432 303.52 243.135 296.323 239.94 291.071C237.994 287.986 236.084 286.775 229.915 286.775H225.949V304.181C225.949 313.619 226.904 314.28 236.048 314.867V318.356H207.037V314.867C216.475 314.28 217.503 313.729 217.503 304.181V259.6C217.503 250.015 216.511 249.868 207.624 249.097V245.682H235.02C242.695 245.682 248.313 246.674 252.316 249.281C256.906 252.219 259.991 257.323 259.991 263.86C259.991 273.591 254.189 279.687 245.742 283.396C247.689 287.105 252.426 294.56 255.731 299.517C259.991 305.43 261.864 307.743 264.691 310.791C267.629 314.096 270.714 315.529 273.248 316.043L272.844 319.237ZM231.861 282.919C237.774 282.919 241.299 281.854 244.163 279.54C248.533 276.125 250.553 271.865 250.553 265.733C250.553 253.724 242.217 249.611 233.294 249.611C229.989 249.611 228.152 250.015 227.271 250.603C226.28 251.374 225.986 252.659 225.986 255.744V282.919H231.861V282.919Z" fill="url(#paint23_linear_665_121)"/>
<path d="M316.507 309.359C309.309 317.805 301.818 319.642 298.329 319.642C284.925 319.642 276.846 308.478 276.846 295.772C276.846 288.097 279.49 281.083 284.117 275.978C288.598 270.947 294.62 267.899 300.165 267.899H300.275C309.603 267.899 317.058 276.125 317.058 285.086C317.058 287.619 316.654 288.391 314.707 288.941C312.945 289.162 298.586 290.3 284.889 290.704C284.962 305.944 293.996 312.334 301.671 312.334C306.335 312.334 310.411 310.314 314.597 306.605L316.507 309.359ZM297.668 272.269C292.417 272.269 287.349 277.007 285.256 285.857C291.829 285.967 298.292 285.857 305.233 285.673C307.436 285.563 308.061 284.902 308.061 283.249C308.061 277.337 303.984 272.269 297.778 272.269H297.668V272.269Z" fill="url(#paint24_linear_665_121)"/>
<path d="M359.729 319.641C358.26 319.641 355.873 318.687 354.882 317.695C353.229 316.043 352.568 314.39 352.091 312.554C347.427 315.639 342.212 319.641 338.32 319.641C330.681 319.641 325.136 313.215 325.136 305.834C325.136 300.582 328.074 296.616 334.464 294.67C341.257 292.357 349.483 289.162 351.87 287.399V285.82C351.87 277.557 347.684 272.93 341.992 272.93C339.568 272.93 337.695 273.922 336.63 275.244C335.198 276.896 334.317 279.1 333.215 282.515C332.921 284.167 331.673 284.939 330.02 284.939C328.294 284.939 325.43 282.809 325.43 280.201C325.43 278.549 327.083 277.264 329.139 275.721C331.93 273.591 339.054 269.221 345.627 267.936C348.822 267.936 352.311 268.928 354.588 271.021C358.297 274.216 359.545 278.696 359.545 284.388V305.577C359.545 310.608 361.381 312.37 363.511 312.37C364.797 312.37 366.449 311.599 367.514 311.085L368.763 314.207L359.729 319.641ZM351.944 291.365C349.41 292.614 343.387 295.221 340.853 296.323C336.263 298.269 333.766 300.472 333.766 304.659C333.766 310.277 338.356 313.105 342.102 313.105C345.187 313.105 349.777 310.571 351.98 308.625V291.365H351.944Z" fill="url(#paint25_linear_665_121)"/>
<path d="M371.701 318.356V315.161C378.972 314.647 380.074 313.876 380.074 306.495V254.349C380.074 246.564 379.303 246.197 371.922 245.793V242.855C377.834 242.084 384.444 240.064 387.822 238.779V306.532C387.822 313.913 388.814 314.684 396.269 315.198V318.393H371.701V318.356Z" fill="url(#paint26_linear_665_121)"/>
<path d="M401.887 318.356V315.162C409.158 314.647 410.039 313.876 410.039 306.422V283.25C410.039 276.456 409.819 275.979 402.658 275.024V272.123C408.387 271.058 413.308 269.699 417.898 267.532V306.385C417.898 313.84 418.669 314.611 426.05 315.125V318.32H401.887V318.356ZM407.799 252.439C407.799 249.134 410.333 246.784 413.418 246.784C416.356 246.784 418.669 249.134 418.669 252.439C418.669 255.267 416.356 257.948 413.308 257.948C410.333 257.911 407.799 255.267 407.799 252.439Z" fill="url(#paint27_linear_665_121)"/>
<path d="M461.01 282.736C458.954 275.832 455.208 271.498 449.847 271.498C445.366 271.498 442.392 274.914 442.392 279.541C442.392 284.792 447.056 287.326 451.903 289.162C460.239 292.577 466.151 296.617 466.151 304.292C466.151 314.39 456.64 319.642 447.79 319.642C441.951 319.642 436.7 317.438 434.9 315.786C434.019 314.133 432.954 306.568 432.954 302.602L436.443 302.088C438.316 309.653 443.053 315.786 449.847 315.786C453.996 315.786 458.183 312.554 458.183 307.56C458.183 302.566 454.474 299.995 449.259 297.461C441.804 294.083 435.011 290.668 435.011 282.111C435.011 274.436 441.621 267.863 451.793 267.863C456.383 267.863 459.358 268.854 461.671 269.809C462.81 272.343 463.874 278.733 464.315 281.781L461.01 282.736Z" fill="url(#paint28_linear_665_121)"/>
<path d="M473.643 318.356V315.162C480.914 314.647 481.795 313.876 481.795 306.422V283.25C481.795 276.456 481.575 275.979 474.414 275.024V272.123C480.143 271.058 485.064 269.699 489.654 267.532V306.385C489.654 313.84 490.425 314.611 497.807 315.125V318.32H473.643V318.356ZM479.555 252.439C479.555 249.134 482.089 246.784 485.174 246.784C488.112 246.784 490.425 249.134 490.425 252.439C490.425 255.267 488.112 257.948 485.064 257.948C482.089 257.911 479.555 255.267 479.555 252.439Z" fill="url(#paint29_linear_665_121)"/>
<path d="M544.297 309.359C537.099 317.805 529.608 319.642 526.119 319.642C512.716 319.642 504.637 308.478 504.637 295.772C504.637 288.097 507.281 281.083 511.908 275.978C516.388 270.947 522.41 267.899 527.956 267.899H528.066C537.393 267.899 544.848 276.125 544.848 285.086C544.848 287.619 544.444 288.391 542.498 288.941C540.735 289.162 526.376 290.3 512.679 290.704C512.752 305.944 521.786 312.334 529.461 312.334C534.125 312.334 538.201 310.314 542.388 306.605L544.297 309.359ZM525.458 272.269C520.207 272.269 515.139 277.007 513.046 285.857C519.62 285.967 526.083 285.857 533.023 285.673C535.227 285.563 535.851 284.902 535.851 283.249C535.851 277.337 531.775 272.269 525.569 272.269H525.458V272.269Z" fill="url(#paint30_linear_665_121)"/>
<path d="M568.093 279.725C571.471 274.18 576.172 267.9 581.901 267.9C585.867 267.9 588.327 270.728 588.327 273.408C588.327 275.355 587.262 277.411 585.095 278.55C583.737 278.954 582.892 278.917 582.158 278.329C580.615 276.603 579.257 276.016 577.567 276.016C574.373 276.016 570.296 279.872 567.873 286.592V306.422C567.873 313.877 568.35 314.648 577.2 315.162V318.357H551.862V315.162C559.243 314.648 560.014 313.877 560.014 306.496V283.691C560.014 276.126 559.537 275.832 552.853 275.061V272.16C557.994 271.279 562.842 269.846 567.836 267.57V279.725H568.093Z" fill="url(#paint31_linear_665_121)"/>
<path d="M648.772 315.676C646.459 316.043 643.411 316.557 640.436 317.439C637.609 318.21 634.781 318.981 632.982 319.642L632.211 318.981V311.012C629.42 313.216 626.849 315.162 623.397 317.035C620.165 318.871 618.036 319.642 615.061 319.642C607.974 319.642 601.106 315.382 601.106 302.639V281.377C601.106 275.098 600.152 274.583 597.508 274.069L594.019 273.408V270.471C596.443 270.36 598.903 269.993 601.878 269.773C604.889 269.259 607.974 268.818 609.369 268.341C609.002 272.05 609.002 277.558 609.002 284.939V299.702C609.002 310.168 614.143 312.738 619.394 312.738C623.691 312.738 627.951 310.902 632.137 306.936V281.377C632.137 275.098 630.999 274.583 627.179 274.069L623.03 273.408V270.471C625.968 270.36 630.044 269.993 633.129 269.699C636.213 269.222 638.674 268.818 640.106 268.341V305.834C640.106 311.563 641.097 312.224 645.467 312.444L648.662 312.555V315.676H648.772Z" fill="url(#paint32_linear_665_121)"/>
<path d="M686.046 318.357V315.162C692.95 314.391 693.831 313.51 693.831 305.945V287.51C693.831 279.651 691.224 274.327 683.182 274.327C678.334 274.327 673.67 277.338 670.145 280.606V306.422C670.145 314.17 670.659 314.391 677.82 315.162V318.357H654.024V315.162C661.589 314.391 662.287 313.73 662.287 306.496V283.691C662.287 276.493 661.515 276.016 655.383 275.061V272.16C660.744 271.205 665.775 269.846 670.145 267.57V276.493C672.348 274.841 674.735 273.298 677.6 271.315C680.684 269.479 683.879 267.937 687.295 267.937C696.035 267.937 701.653 274.07 701.653 284.829V306.459C701.653 314.134 702.314 314.428 709.108 315.199V318.394H686.046V318.357Z" fill="url(#paint33_linear_665_121)"/>
<path d="M763.751 269.956C762.797 271.829 760.373 274.803 758.61 275.684L752.367 275.207C754.497 277.631 755.672 281.34 755.672 285.306C755.672 297.351 745.794 303.337 736.063 303.337C734.41 303.337 732.28 303.116 730.334 302.749C728.681 303.998 726.735 306.164 726.735 307.707C726.735 309.91 728.571 311.856 733.529 311.856C738.009 311.856 742.085 311.783 745.941 311.783C753.028 311.783 761.952 314.133 761.952 325.15C761.952 336.387 749.026 347 734.3 347C721.998 347 714.984 339.729 714.874 333.192C714.874 330.879 715.755 328.455 717.518 326.692C719.574 324.489 724.091 320.78 726.625 318.76C722.769 317.695 719.831 315.051 718.399 312.738C717.518 311.195 717.15 309.249 717.261 308.257C721.447 306.715 724.936 303.667 726.698 301.354C722.218 299.407 717.261 294.34 717.261 286.591C717.261 273.848 728.791 267.936 737.238 267.936H737.348C740.836 267.936 744.656 268.928 747.85 270.653C753.212 270.36 758.5 269.772 762.98 269.001L763.751 269.956ZM738.89 318.98C733.529 318.98 730.958 319.752 728.791 321.624C725.486 324.122 723.283 327.427 723.283 330.732C723.283 336.864 729.893 341.014 738.119 341.014C749.099 341.014 754.791 335.579 754.791 328.565C754.791 324.893 753.028 321.955 749.944 320.633C747.116 319.348 743.811 318.98 739 318.98H738.89V318.98ZM735.952 271.388C730.885 271.388 726.221 276.345 726.221 284.902C726.221 293.532 730.995 299.554 737.274 299.554C742.415 299.481 747.153 294.89 747.153 286.334C747.153 277.374 742.415 271.388 736.099 271.388H735.952Z" fill="url(#paint34_linear_665_121)"/>
<defs>
<linearGradient id="paint0_linear_665_121" x1="80.9195" y1="424.182" x2="80.9195" y2="150.981" gradientUnits="userSpaceOnUse">
<stop stop-color="#F7CE6E"/>
<stop offset="0.6159" stop-color="#DFB157"/>
<stop offset="1" stop-color="#D5A44E"/>
</linearGradient>
<linearGradient id="paint1_linear_665_121" x1="79.5776" y1="424.182" x2="79.5776" y2="150.981" gradientUnits="userSpaceOnUse">
<stop stop-color="#F7CE6E"/>
<stop offset="0.6159" stop-color="#DFB157"/>
<stop offset="1" stop-color="#D5A44E"/>
</linearGradient>
<linearGradient id="paint2_linear_665_121" x1="91.9834" y1="424.182" x2="91.9834" y2="150.981" gradientUnits="userSpaceOnUse">
<stop stop-color="#F7CE6E"/>
<stop offset="0.6159" stop-color="#DFB157"/>
<stop offset="1" stop-color="#D5A44E"/>
</linearGradient>
<linearGradient id="paint3_linear_665_121" x1="76.4282" y1="424.183" x2="76.4282" y2="150.98" gradientUnits="userSpaceOnUse">
<stop stop-color="#F7CE6E"/>
<stop offset="0.6159" stop-color="#DFB157"/>
<stop offset="1" stop-color="#D5A44E"/>
</linearGradient>
<linearGradient id="paint4_linear_665_121" x1="151.291" y1="424.182" x2="151.291" y2="150.982" gradientUnits="userSpaceOnUse">
<stop stop-color="#F7CE6E"/>
<stop offset="0.6159" stop-color="#DFB157"/>
<stop offset="1" stop-color="#D5A44E"/>
</linearGradient>
<linearGradient id="paint5_linear_665_121" x1="76.1432" y1="424.183" x2="76.1432" y2="150.98" gradientUnits="userSpaceOnUse">
<stop stop-color="#F7CE6E"/>
<stop offset="0.6159" stop-color="#DFB157"/>
<stop offset="1" stop-color="#D5A44E"/>
</linearGradient>
<linearGradient id="paint6_linear_665_121" x1="91.9833" y1="424.182" x2="91.9833" y2="150.981" gradientUnits="userSpaceOnUse">
<stop stop-color="#F7CE6E"/>
<stop offset="0.6159" stop-color="#DFB157"/>
<stop offset="1" stop-color="#D5A44E"/>
</linearGradient>
<linearGradient id="paint7_linear_665_121" x1="60.931" y1="424.183" x2="60.931" y2="150.981" gradientUnits="userSpaceOnUse">
<stop stop-color="#F7CE6E"/>
<stop offset="0.6159" stop-color="#DFB157"/>
<stop offset="1" stop-color="#D5A44E"/>
</linearGradient>
<linearGradient id="paint8_linear_665_121" x1="235.374" y1="324.461" x2="235.374" y2="-678.803" gradientUnits="userSpaceOnUse">
<stop stop-color="#F7CE6E"/>
<stop offset="0.6159" stop-color="#DFB157"/>
<stop offset="1" stop-color="#D5A44E"/>
</linearGradient>
<linearGradient id="paint9_linear_665_121" x1="295.32" y1="324.462" x2="295.32" y2="-678.803" gradientUnits="userSpaceOnUse">
<stop stop-color="#F7CE6E"/>
<stop offset="0.6159" stop-color="#DFB157"/>
<stop offset="1" stop-color="#D5A44E"/>
</linearGradient>
<linearGradient id="paint10_linear_665_121" x1="340.707" y1="324.462" x2="340.707" y2="-678.805" gradientUnits="userSpaceOnUse">
<stop stop-color="#F7CE6E"/>
<stop offset="0.6159" stop-color="#DFB157"/>
<stop offset="1" stop-color="#D5A44E"/>
</linearGradient>
<linearGradient id="paint11_linear_665_121" x1="386.863" y1="324.462" x2="386.863" y2="-678.804" gradientUnits="userSpaceOnUse">
<stop stop-color="#F7CE6E"/>
<stop offset="0.6159" stop-color="#DFB157"/>
<stop offset="1" stop-color="#D5A44E"/>
</linearGradient>
<linearGradient id="paint12_linear_665_121" x1="425.104" y1="324.461" x2="425.104" y2="-678.804" gradientUnits="userSpaceOnUse">
<stop stop-color="#F7CE6E"/>
<stop offset="0.6159" stop-color="#DFB157"/>
<stop offset="1" stop-color="#D5A44E"/>
</linearGradient>
<linearGradient id="paint13_linear_665_121" x1="471.29" y1="324.461" x2="471.29" y2="-678.804" gradientUnits="userSpaceOnUse">
<stop stop-color="#F7CE6E"/>
<stop offset="0.6159" stop-color="#DFB157"/>
<stop offset="1" stop-color="#D5A44E"/>
</linearGradient>
<linearGradient id="paint14_linear_665_121" x1="531.413" y1="324.461" x2="531.413" y2="-678.804" gradientUnits="userSpaceOnUse">
<stop stop-color="#F7CE6E"/>
<stop offset="0.6159" stop-color="#DFB157"/>
<stop offset="1" stop-color="#D5A44E"/>
</linearGradient>
<linearGradient id="paint15_linear_665_121" x1="589.174" y1="324.462" x2="589.174" y2="-678.803" gradientUnits="userSpaceOnUse">
<stop stop-color="#F7CE6E"/>
<stop offset="0.6159" stop-color="#DFB157"/>
<stop offset="1" stop-color="#D5A44E"/>
</linearGradient>
<linearGradient id="paint16_linear_665_121" x1="234.282" y1="324.462" x2="234.282" y2="-678.804" gradientUnits="userSpaceOnUse">
<stop stop-color="#F7CE6E"/>
<stop offset="0.6159" stop-color="#DFB157"/>
<stop offset="1" stop-color="#D5A44E"/>
</linearGradient>
<linearGradient id="paint17_linear_665_121" x1="279.993" y1="324.461" x2="279.993" y2="-678.804" gradientUnits="userSpaceOnUse">
<stop stop-color="#F7CE6E"/>
<stop offset="0.6159" stop-color="#DFB157"/>
<stop offset="1" stop-color="#D5A44E"/>
</linearGradient>
<linearGradient id="paint18_linear_665_121" x1="320.834" y1="324.461" x2="320.834" y2="-678.804" gradientUnits="userSpaceOnUse">
<stop stop-color="#F7CE6E"/>
<stop offset="0.6159" stop-color="#DFB157"/>
<stop offset="1" stop-color="#D5A44E"/>
</linearGradient>
<linearGradient id="paint19_linear_665_121" x1="373.663" y1="324.461" x2="373.663" y2="-678.803" gradientUnits="userSpaceOnUse">
<stop stop-color="#F7CE6E"/>
<stop offset="0.6159" stop-color="#DFB157"/>
<stop offset="1" stop-color="#D5A44E"/>
</linearGradient>
<linearGradient id="paint20_linear_665_121" x1="432.311" y1="324.461" x2="432.311" y2="-678.804" gradientUnits="userSpaceOnUse">
<stop stop-color="#F7CE6E"/>
<stop offset="0.6159" stop-color="#DFB157"/>
<stop offset="1" stop-color="#D5A44E"/>
</linearGradient>
<linearGradient id="paint21_linear_665_121" x1="492.433" y1="324.461" x2="492.433" y2="-678.803" gradientUnits="userSpaceOnUse">
<stop stop-color="#F7CE6E"/>
<stop offset="0.6159" stop-color="#DFB157"/>
<stop offset="1" stop-color="#D5A44E"/>
</linearGradient>
<linearGradient id="paint22_linear_665_121" x1="550.195" y1="324.461" x2="550.195" y2="-678.804" gradientUnits="userSpaceOnUse">
<stop stop-color="#F7CE6E"/>
<stop offset="0.6159" stop-color="#DFB157"/>
<stop offset="1" stop-color="#D5A44E"/>
</linearGradient>
<linearGradient id="paint23_linear_665_121" x1="240.188" y1="324.461" x2="240.188" y2="-678.804" gradientUnits="userSpaceOnUse">
<stop stop-color="#F7CE6E"/>
<stop offset="0.6159" stop-color="#DFB157"/>
<stop offset="1" stop-color="#D5A44E"/>
</linearGradient>
<linearGradient id="paint24_linear_665_121" x1="296.915" y1="324.461" x2="296.915" y2="-678.804" gradientUnits="userSpaceOnUse">
<stop stop-color="#F7CE6E"/>
<stop offset="0.6159" stop-color="#DFB157"/>
<stop offset="1" stop-color="#D5A44E"/>
</linearGradient>
<linearGradient id="paint25_linear_665_121" x1="346.997" y1="324.461" x2="346.997" y2="-678.803" gradientUnits="userSpaceOnUse">
<stop stop-color="#F7CE6E"/>
<stop offset="0.6159" stop-color="#DFB157"/>
<stop offset="1" stop-color="#D5A44E"/>
</linearGradient>
<linearGradient id="paint26_linear_665_121" x1="383.998" y1="324.461" x2="383.998" y2="-678.804" gradientUnits="userSpaceOnUse">
<stop stop-color="#F7CE6E"/>
<stop offset="0.6159" stop-color="#DFB157"/>
<stop offset="1" stop-color="#D5A44E"/>
</linearGradient>
<linearGradient id="paint27_linear_665_121" x1="413.972" y1="324.461" x2="413.972" y2="-678.803" gradientUnits="userSpaceOnUse">
<stop stop-color="#F7CE6E"/>
<stop offset="0.6159" stop-color="#DFB157"/>
<stop offset="1" stop-color="#D5A44E"/>
</linearGradient>
<linearGradient id="paint28_linear_665_121" x1="449.555" y1="324.461" x2="449.555" y2="-678.804" gradientUnits="userSpaceOnUse">
<stop stop-color="#F7CE6E"/>
<stop offset="0.6159" stop-color="#DFB157"/>
<stop offset="1" stop-color="#D5A44E"/>
</linearGradient>
<linearGradient id="paint29_linear_665_121" x1="485.73" y1="324.461" x2="485.73" y2="-678.803" gradientUnits="userSpaceOnUse">
<stop stop-color="#F7CE6E"/>
<stop offset="0.6159" stop-color="#DFB157"/>
<stop offset="1" stop-color="#D5A44E"/>
</linearGradient>
<linearGradient id="paint30_linear_665_121" x1="524.709" y1="324.461" x2="524.709" y2="-678.804" gradientUnits="userSpaceOnUse">
<stop stop-color="#F7CE6E"/>
<stop offset="0.6159" stop-color="#DFB157"/>
<stop offset="1" stop-color="#D5A44E"/>
</linearGradient>
<linearGradient id="paint31_linear_665_121" x1="570.097" y1="324.462" x2="570.097" y2="-678.802" gradientUnits="userSpaceOnUse">
<stop stop-color="#F7CE6E"/>
<stop offset="0.6159" stop-color="#DFB157"/>
<stop offset="1" stop-color="#D5A44E"/>
</linearGradient>
<linearGradient id="paint32_linear_665_121" x1="621.42" y1="324.462" x2="621.42" y2="-678.804" gradientUnits="userSpaceOnUse">
<stop stop-color="#F7CE6E"/>
<stop offset="0.6159" stop-color="#DFB157"/>
<stop offset="1" stop-color="#D5A44E"/>
</linearGradient>
<linearGradient id="paint33_linear_665_121" x1="681.543" y1="324.462" x2="681.543" y2="-678.803" gradientUnits="userSpaceOnUse">
<stop stop-color="#F7CE6E"/>
<stop offset="0.6159" stop-color="#DFB157"/>
<stop offset="1" stop-color="#D5A44E"/>
</linearGradient>
<linearGradient id="paint34_linear_665_121" x1="739.304" y1="324.461" x2="739.304" y2="-678.804" gradientUnits="userSpaceOnUse">
<stop stop-color="#F7CE6E"/>
<stop offset="0.6159" stop-color="#DFB157"/>
<stop offset="1" stop-color="#D5A44E"/>
</linearGradient>
</defs>
</svg>
